<svg width="40" height="40" viewBox="0 0 40 40" fill="none" xmlns="http://www.w3.org/2000/svg">
<path d="M2.7998 4.6167H8.63314L13.8998 27.4667H34.9998L37.1998 11.2H11.5998" stroke="#151515" stroke-width="2.5" stroke-linecap="round" stroke-linejoin="round"/>
<path d="M17.6833 31.0334H17.6667C16.4701 31.0334 15.5 32.0035 15.5 33.2001V33.2168C15.5 34.4134 16.4701 35.3834 17.6667 35.3834H17.6833C18.88 35.3834 19.85 34.4134 19.85 33.2168V33.2001C19.85 32.0035 18.88 31.0334 17.6833 31.0334Z" stroke="#151515" stroke-width="2.5" stroke-linecap="round" stroke-linejoin="round"/>
<path d="M17.6833 31.0334H17.6667C16.4701 31.0334 15.5 32.0035 15.5 33.2001V33.2168C15.5 34.4134 16.4701 35.3834 17.6667 35.3834H17.6833C18.88 35.3834 19.85 34.4134 19.85 33.2168V33.2001C19.85 32.0035 18.88 31.0334 17.6833 31.0334Z" stroke="#151515" stroke-width="2.5" stroke-linecap="round" stroke-linejoin="round"/>
<path d="M29.1169 31.0334H29.1003C27.9036 31.0334 26.9336 32.0035 26.9336 33.2001V33.2168C26.9336 34.4134 27.9036 35.3834 29.1003 35.3834H29.1169C30.3135 35.3834 31.2836 34.4134 31.2836 33.2168V33.2001C31.2836 32.0035 30.3135 31.0334 29.1169 31.0334Z" stroke="#151515" stroke-width="2.5" stroke-linecap="round" stroke-linejoin="round"/>
</svg>
