<svg width="133" height="30" viewBox="0 0 133 30" fill="none" xmlns="http://www.w3.org/2000/svg">
<path d="M1.451 20.129H0.634C0.634 18.7817 1.03533 16.2017 1.838 12.389C2.66933 8.57633 3.085 6.412 3.085 5.896C3.085 4.95 2.68367 3.94667 1.881 2.886L1.494 2.37L1.537 1.811C3.085 1.381 5.56467 1.166 8.976 1.166C9.37733 1.71067 9.578 2.59933 9.578 3.832C12.158 1.91133 14.2077 0.950999 15.727 0.950999C17.6477 0.950999 18.78 1.94 19.124 3.918C19.898 3.28733 20.9013 2.64233 22.134 1.983C23.3953 1.295 24.5133 0.950999 25.488 0.950999C26.4913 0.950999 27.3227 1.28067 27.982 1.94C28.6413 2.57067 28.971 3.45933 28.971 4.606C28.971 5.75267 28.6557 7.64467 28.025 10.282C27.3943 12.9193 27.079 14.6967 27.079 15.614C27.079 16.5027 27.208 16.947 27.466 16.947C27.638 16.947 28.2257 16.6747 29.229 16.13L29.702 15.872L30.476 17.377C29.7307 18.1223 28.713 18.839 27.423 19.527C26.1617 20.1863 25.0437 20.516 24.069 20.516C21.919 20.516 20.844 19.2977 20.844 16.861C20.844 15.9723 21.145 14.195 21.747 11.529C22.3777 8.83433 22.693 7.08567 22.693 6.283C22.693 5.45167 22.4493 5.036 21.962 5.036C21.1307 5.036 20.1847 5.35133 19.124 5.982C19.0667 6.55533 18.6653 8.50467 17.92 11.83C17.2033 15.1553 16.845 17.7353 16.845 19.57C16.0137 19.9427 14.0643 20.129 10.997 20.129C10.9397 19.8137 10.911 19.054 10.911 17.85C10.911 16.646 11.2407 14.5963 11.9 11.701C12.588 8.80567 12.932 6.971 12.932 6.197C12.932 5.423 12.6597 5.036 12.115 5.036C11.255 5.036 10.309 5.38 9.277 6.068C9.21967 6.326 8.933 7.58733 8.417 9.852C7.385 14.3813 6.869 17.6063 6.869 19.527C5.86567 19.9283 4.05967 20.129 1.451 20.129ZM31.6961 12.561C31.6961 8.97767 32.7711 6.154 34.9211 4.09C37.0998 1.99733 39.5651 0.950999 42.3171 0.950999C44.0085 0.950999 45.3988 1.36667 46.4881 2.198C47.5775 3.02933 48.1221 4.14733 48.1221 5.552C48.1221 6.928 47.7638 8.089 47.0471 9.035C46.3591 9.981 45.5135 10.712 44.5101 11.228C42.4748 12.2313 40.6115 12.862 38.9201 13.12L37.8881 13.249C38.0888 15.9437 39.1925 17.291 41.1991 17.291C41.8871 17.291 42.6181 17.119 43.3921 16.775C44.1661 16.431 44.7681 16.087 45.1981 15.743L45.8431 15.227L46.8751 16.603C46.6458 16.9183 46.1871 17.334 45.4991 17.85C44.8111 18.366 44.1661 18.796 43.5641 19.14C41.9015 20.0573 40.0811 20.516 38.1031 20.516C36.1251 20.516 34.5628 19.8137 33.4161 18.409C32.2695 17.0043 31.6961 15.055 31.6961 12.561ZM37.8451 11.142C39.3071 10.884 40.4681 10.2677 41.3281 9.293C42.1881 8.31833 42.6181 7.057 42.6181 5.509C42.6181 3.961 42.1595 3.187 41.2421 3.187C40.1528 3.187 39.3071 4.11867 38.7051 5.982C38.1318 7.81667 37.8451 9.53667 37.8451 11.142ZM50.2039 20.129H49.3869C49.3869 18.7817 49.7883 16.2017 50.5909 12.389C51.4223 8.57633 51.8379 6.412 51.8379 5.896C51.8379 4.95 51.4366 3.94667 50.6339 2.886L50.2469 2.37L50.2899 1.811C51.8379 1.381 54.3176 1.166 57.7289 1.166C58.1016 1.65333 58.3023 2.542 58.3309 3.832C60.8249 1.91133 62.9319 0.950999 64.6519 0.950999C65.6839 0.950999 66.5009 1.30933 67.1029 2.026C67.7336 2.74267 68.0489 3.64567 68.0489 4.735C68.0489 5.79567 67.7193 7.64467 67.0599 10.282C66.4006 12.9193 66.0709 14.6967 66.0709 15.614C66.0709 16.5027 66.1856 16.947 66.4149 16.947C66.5869 16.947 67.1889 16.6747 68.2209 16.13L68.7369 15.872L69.5109 17.377C69.2529 17.6063 68.9089 17.893 68.4789 18.237C68.0489 18.581 67.2463 19.054 66.0709 19.656C64.9243 20.2293 63.8923 20.516 62.9749 20.516C60.8823 20.516 59.8359 19.3263 59.8359 16.947C59.8359 15.9437 60.1513 14.0947 60.7819 11.4C61.4413 8.70533 61.7709 6.971 61.7709 6.197C61.7709 5.423 61.5273 5.036 61.0399 5.036C60.2086 5.036 59.1909 5.39433 57.9869 6.111C57.9009 6.59833 57.6143 7.88833 57.1269 9.981C56.1236 14.4817 55.6219 17.6637 55.6219 19.527C54.6186 19.9283 52.8126 20.129 50.2039 20.129ZM76.7269 24.644C75.7809 25.2173 75.3079 25.7763 75.3079 26.321C75.3079 26.8657 75.6089 27.138 76.2109 27.138C76.8415 27.138 77.5439 26.837 78.3179 26.235C79.0919 25.6617 79.7369 24.7157 80.2529 23.397C78.8769 23.655 77.7015 24.0707 76.7269 24.644ZM74.6629 20.172C72.2549 20.172 71.0509 18.8533 71.0509 16.216C71.0509 15.5853 71.3375 13.765 71.9109 10.755C72.4842 7.745 72.7709 5.23667 72.7709 3.23C72.7709 2.8 72.7135 2.39867 72.5989 2.026C74.1469 1.424 76.2682 1.123 78.9629 1.123C79.1062 1.52433 79.1779 2.21233 79.1779 3.187C79.1779 4.16167 78.8625 6.18267 78.2319 9.25C77.6012 12.3173 77.2859 14.2953 77.2859 15.184C77.2859 16.0727 77.6585 16.517 78.4039 16.517C79.2925 16.517 80.3675 16.0727 81.6289 15.184C81.7722 13.4927 82.3455 9.035 83.3489 1.811C84.3522 1.40967 86.1582 1.209 88.7669 1.209H89.5839C89.0392 3.359 88.5089 6.455 87.9929 10.497C87.4769 14.539 87.0612 17.3483 86.7459 18.925C86.1439 22.0783 85.0259 24.644 83.3919 26.622C81.7865 28.6287 79.6795 29.632 77.0709 29.632C76.0389 29.632 75.0929 29.3597 74.2329 28.815C73.4015 28.2703 72.9859 27.568 72.9859 26.708C72.9859 25.5613 73.6882 24.515 75.0929 23.569C76.4975 22.623 78.3895 21.892 80.7689 21.376C81.0269 20.1147 81.2275 18.8963 81.3709 17.721C79.0489 19.355 76.8129 20.172 74.6629 20.172ZM90.8752 16.775C90.8752 15.5423 91.2479 13.4497 91.9932 10.497C92.7385 7.51567 93.1112 5.69533 93.1112 5.036C93.1112 4.348 92.5952 3.445 91.5632 2.327L91.6062 1.768C93.5555 1.36667 96.1212 1.166 99.3032 1.166C99.4465 1.53867 99.5182 2.21233 99.5182 3.187C99.5182 4.16167 99.1169 6.24 98.3142 9.422C97.5115 12.604 97.1102 14.582 97.1102 15.356C97.1102 16.13 97.3969 16.517 97.9702 16.517C98.8015 16.517 99.7619 16.216 100.851 15.614C100.966 14.926 101.253 13.6073 101.711 11.658C102.743 7.07133 103.259 3.789 103.259 1.811C104.263 1.40967 106.069 1.209 108.677 1.209H109.494C109.494 2.55633 109.093 5.19367 108.29 9.121C107.488 13.0197 107.086 15.313 107.086 16.001C107.086 16.6603 107.23 16.99 107.516 16.99C107.688 16.99 108.505 16.646 109.967 15.958L110.784 17.334C108.233 19.4553 105.997 20.516 104.076 20.516C103.159 20.516 102.371 20.258 101.711 19.742C101.081 19.226 100.722 18.5523 100.636 17.721C98.3142 19.613 96.2072 20.559 94.3152 20.559C93.3119 20.559 92.4805 20.2293 91.8212 19.57C91.1905 18.9107 90.8752 17.979 90.8752 16.775ZM113.15 20.129H112.333C112.333 18.7817 112.735 16.2017 113.537 12.389C114.369 8.57633 114.784 6.412 114.784 5.896C114.784 4.95 114.383 3.94667 113.58 2.886L113.193 2.37L113.236 1.811C114.784 1.381 117.264 1.166 120.675 1.166C121.048 1.65333 121.249 2.542 121.277 3.832C123.771 1.91133 125.878 0.950999 127.598 0.950999C128.63 0.950999 129.447 1.30933 130.049 2.026C130.68 2.74267 130.995 3.64567 130.995 4.735C130.995 5.79567 130.666 7.64467 130.006 10.282C129.347 12.9193 129.017 14.6967 129.017 15.614C129.017 16.5027 129.132 16.947 129.361 16.947C129.533 16.947 130.135 16.6747 131.167 16.13L131.683 15.872L132.457 17.377C132.199 17.6063 131.855 17.893 131.425 18.237C130.995 18.581 130.193 19.054 129.017 19.656C127.871 20.2293 126.839 20.516 125.921 20.516C123.829 20.516 122.782 19.3263 122.782 16.947C122.782 15.9437 123.098 14.0947 123.728 11.4C124.388 8.70533 124.717 6.971 124.717 6.197C124.717 5.423 124.474 5.036 123.986 5.036C123.155 5.036 122.137 5.39433 120.933 6.111C120.847 6.59833 120.561 7.88833 120.073 9.981C119.07 14.4817 118.568 17.6637 118.568 19.527C117.565 19.9283 115.759 20.129 113.15 20.129Z" fill="black"/>
</svg>
