<svg width="17" height="17" viewBox="0 0 17 17" fill="none" xmlns="http://www.w3.org/2000/svg">
<path d="M2.125 10.0443H10.1717C10.5318 10.0446 10.8819 9.92503 11.1666 9.70444C11.4513 9.48384 11.6545 9.17477 11.7442 8.82593L13.0617 3.59843C13.1085 3.42185 13.2124 3.2657 13.3571 3.15426C13.5019 3.04281 13.6794 2.98232 13.8621 2.98218H15.4983" stroke="black" stroke-linecap="round" stroke-linejoin="round"/>
<path d="M9.81763 10.1575L11.1847 14.5846" stroke="black" stroke-linecap="round" stroke-linejoin="round"/>
<path d="M2.12521 2.98215H9.91688C10.0231 2.97999 10.1285 3.00177 10.2252 3.04587C10.3218 3.08996 10.4074 3.15524 10.4754 3.23687C10.5434 3.3185 10.5922 3.41439 10.6181 3.51743C10.6441 3.62048 10.6465 3.72804 10.6252 3.83215L9.8673 7.49423C9.83418 7.65663 9.74516 7.80228 9.61574 7.90582C9.48631 8.00936 9.32468 8.06424 9.15896 8.0609H3.05313C2.88438 8.06335 2.7203 8.00547 2.59044 7.89769C2.46058 7.7899 2.37347 7.63929 2.3448 7.47298L1.63646 3.49923C1.62511 3.43124 1.62967 3.36155 1.64977 3.29561C1.66987 3.22968 1.70497 3.1693 1.75231 3.11921C1.79966 3.06911 1.85797 3.03067 1.92267 3.00689C1.98737 2.98311 2.05669 2.97464 2.12521 2.98215V2.98215Z" stroke="black" stroke-linecap="round" stroke-linejoin="round"/>
<path d="M5.52506 12.9625C5.52506 11.9845 4.73224 11.1917 3.75423 11.1917C2.77623 11.1917 1.9834 11.9845 1.9834 12.9625C1.9834 13.9405 2.77623 14.7333 3.75423 14.7333C4.73224 14.7333 5.52506 13.9405 5.52506 12.9625Z" stroke="black" stroke-linecap="round" stroke-linejoin="bevel"/>
</svg>
