<svg width="48" height="48" viewBox="0 0 48 48" fill="none" xmlns="http://www.w3.org/2000/svg">
<path d="M33.4803 9.09993C32.852 8.51607 32.0189 8.20334 31.1616 8.22955C30.3043 8.25576 29.4918 8.61878 28.9003 9.23993L8.90035 29.2399L8.28035 38.9599C8.27449 39.0534 8.28858 39.147 8.32169 39.2346C8.35479 39.3222 8.40615 39.4017 8.47236 39.4679C8.53857 39.5341 8.61811 39.5855 8.70569 39.6186C8.79327 39.6517 8.8869 39.6658 8.98035 39.6599L18.7003 39.0399L38.7003 19.0399C39.3215 18.4484 39.6845 17.636 39.7107 16.7787C39.7369 15.9214 39.4242 15.0882 38.8403 14.4599L33.4803 9.09993Z" stroke="white" stroke-width="2.5" stroke-linecap="round" stroke-linejoin="round"/>
</svg>
