<svg width="40" height="40" viewBox="0 0 40 40" fill="none" xmlns="http://www.w3.org/2000/svg">
<path d="M25 28.6665L15 18.6665" stroke="white" stroke-width="2.5" stroke-linecap="round" stroke-linejoin="bevel"/>
<path d="M25 18.6665L15 28.6665" stroke="white" stroke-width="2.5" stroke-linecap="round" stroke-linejoin="bevel"/>
<path d="M33.3333 3.0166H6.66667C5.74619 3.0166 5 3.76279 5 4.68327V8.0166C5 8.93708 5.74619 9.68327 6.66667 9.68327H33.3333C34.2538 9.68327 35 8.93708 35 8.0166V4.68327C35 3.76279 34.2538 3.0166 33.3333 3.0166Z" stroke="white" stroke-width="2.5" stroke-linecap="round" stroke-linejoin="bevel"/>
<path d="M31.6667 10.3164V33.6497C31.6667 34.5338 31.3155 35.3816 30.6904 36.0068C30.0653 36.6319 29.2174 36.9831 28.3334 36.9831H11.6667C10.7827 36.9831 9.93481 36.6319 9.30968 36.0068C8.68456 35.3816 8.33337 34.5338 8.33337 33.6497V10.3164" stroke="white" stroke-width="2.5" stroke-linecap="round" stroke-linejoin="bevel"/>
</svg>
