<svg width="24" height="22" viewBox="0 0 24 22" fill="none" xmlns="http://www.w3.org/2000/svg">
<path fill-rule="evenodd" clip-rule="evenodd" d="M11.0552 2.19001C11.1253 1.97096 11.2645 1.77965 11.4525 1.64384C11.6405 1.50803 11.8675 1.43481 12.1007 1.43481C12.3338 1.43481 12.5608 1.50803 12.7488 1.64384C12.9368 1.77965 13.076 1.97096 13.1461 2.19001L15.034 7.91001H21.124C21.3655 7.90101 21.6033 7.97015 21.8011 8.10684C21.9989 8.24354 22.1459 8.44029 22.2195 8.66702C22.2932 8.89376 22.2895 9.13801 22.2089 9.36246C22.1284 9.58691 21.9755 9.77922 21.7736 9.91001L16.8306 13.44L18.7185 19.17C18.7931 19.3883 18.795 19.6243 18.7238 19.8437C18.6527 20.0631 18.5122 20.2544 18.3228 20.3895C18.1335 20.5246 17.9053 20.5966 17.6716 20.5949C17.4378 20.5932 17.2107 20.5179 17.0234 20.38L12.0702 16.81L7.12717 20.35C6.93991 20.4879 6.71281 20.5632 6.47903 20.5649C6.24526 20.5666 6.01705 20.4946 5.82774 20.3595C5.63842 20.2244 5.49792 20.0331 5.42675 19.8137C5.35557 19.5943 5.35745 19.3583 5.43212 19.14L7.32002 13.41L2.37697 9.88001C2.17507 9.74922 2.02218 9.55691 1.94166 9.33246C1.86113 9.10801 1.85741 8.86376 1.93105 8.63702C2.0047 8.41029 2.15166 8.21354 2.34948 8.07684C2.5473 7.94014 2.78511 7.87101 3.02657 7.88001H9.11657L11.0552 2.19001Z" stroke="#FFC806" stroke-width="2.5" stroke-linecap="round" stroke-linejoin="round"/>
</svg>
